{"title":"Vampire.Academy.2014.BRRIP.x264.AC3.CrEwSaDe","uid":10043495,"size":1491854771,"categoryP":"video","categoryS":"movies","magnet":"?xt=urn:btih:8c9ab98d815a4431d714fbbe801e9a0f02e5f4b1&amp;dn=Vampire.Academy.2014.BRRIP.x264.AC3.CrEwSaDe&amp;tr=udp%3A%2F%2Ftracker.openbittorrent.com%3A80&amp;tr=udp%3A%2F%2Fopen.demonii.com%3A1337&amp;tr=udp%3A%2F%2Ftracker.coppersurfer.tk%3A6969&amp;tr=udp%3A%2F%2Fexodus.desync.com%3A6969","seeders":1,"leechers":0,"uploader":"Xetron","files":3,"time":1398500572,"description":" &lt;a href=&quot;http://i1179.photobucket.com/albums/x394/crewsade/Knife3/vampireacademyp.png&quot; rel=&quot;nofollow&quot; target=&quot;_NEW&quot;&gt;http://i1179.photobucket.com/albums/x394/crewsade/Knife3/vampireacademyp.png&lt;/a&gt;\n\n******************************************************************************************************\n\n**Vampire.Academy.2014.BRRIP.x264.AC3.CrEwSaDe **\n\n******************************************************************************************************\n\nVideo Codec.......:AVC\nVideo Bitrate.....:1 501 Kbps\nAudio Codec.......:AC-3\nResolution........:720x304\nRuntime...........:1h 44mn\nRelease Date......:26/04/14\nTheatre Date......:7 February 2014 (USA)\nLanguage..........:English\nSubtitles.........:N/A\nIMDB Rating.......:6.5\nIMDb URL..........:http://www.imdb.com/title/tt1686821\n\n_______________________________________________________________________________ General\nUnique ID: 248126222100284849908939002571550552369 (0xBAAB5F42CD363717A899FB42E3C2F131)\nComplete name: C:UsersrootDownloadsVampire.Academy.2014.BRRIP.x264.AC3.CrEwSaDeVampire.Academy.2014.BRRIP.x264.AC3.CrEwSaDe.mkv\nFormat: Matroska\nFormat version: Version 2\nFile size: 1.37 GiB\nDuration: 1h 44mn\nOverall bit rate: 1 886 Kbps\nEncoded date: UTC 2014-04-26 04:47:48\nWriting application: mkvmerge v6.8.0 ('Theme for Great Cities') 32bit built on Mar 2 2014 21:27:07\nWriting library: libebml v1.3.0 + libmatroska v1.4.1\n\n________________________________________________________________________________ \nVideo\nID: 1\nFormat: AVC\nFormat/Info: Advanced Video Codec\nFormat profile: &lt;a class=&quot;__cf_email__&quot; href=&quot;/cdn-cgi/l/email-protection&quot; data-cfemail=&quot;88c0e1efe0c8c4bba6b9&quot;&gt;[email&amp;#160;protected]&lt;/a&gt;&lt;script cf-hash='f9e31' type=&quot;text/javascript&quot;&gt;\n/* &lt;![CDATA[ */!function(){try{var t=&quot;currentScript&quot;in document?document.currentScript:function(){for(var t=document.getElementsByTagName(&quot;script&quot;),e=t.length;e--;)if(t[e].getAttribute(&quot;cf-hash&quot;))return t[e]}();if(t&amp;&amp;t.previousSibling){var e,r,n,i,c=t.previousSibling,a=c.getAttribute(&quot;data-cfemail&quot;);if(a){for(e=&quot;&quot;,r=parseInt(a.substr(0,2),16),n=2;a.length-n;n+=2)i=parseInt(a.substr(n,2),16)^r,e+=String.fromCharCode(i);e=document.createTextNode(e),c.parentNode.replaceChild(e,c)}}}catch(u){}}();/* ]]&gt; */&lt;/script&gt;\nFormat settings, CABAC: Yes\nFormat settings, ReFrames: 4 frames\nCodec ID: V_MPEG4/ISO/AVC\nDuration: 1h 44mn\nBit rate: 1 501 Kbps\nWidth: 720 pixels\nHeight: 304 pixels\nDisplay aspect ratio: 2.40:1\nFrame rate mode: Constant\nFrame rate: 23.976 fps\nColor space: YUV\nChroma subsampling: 4:2:0\nBit depth: 8 bits\nScan type: Progressive\nBits/(Pixel*Frame): 0.286\nStream size: 1.07 GiB (78%)\nWriting library: x264 core 142 r2409 d6b4e63\nEncoding settings: cabac=1 / ref=3 / deblock=1:-2:-2 / analyse=0x3:0x113 / me=hex / subme=7 / psy=1 / psy_rd=1.00:0.25 / mixed_ref=1 / me_range=16 / chroma_me=1 / trellis=1 / 8x8dct=1 / cqm=0 / deadzone=6,6 / fast_pskip=1 / chroma_qp_offset=-4 / threads=12 / lookahead_threads=2 / sliced_threads=0 / nr=0 / decimate=0 / interlaced=0 / bluray_compat=0 / constrained_intra=0 / bframes=3 / b_pyramid=2 / b_adapt=1 / b_bias=0 / direct=1 / weightb=1 / open_gop=0 / weightp=2 / keyint=240 / keyint_min=23 / scenecut=40 / intra_refresh=0 / rc_lookahead=40 / rc=2pass / mbtree=1 / bitrate=1501 / ratetol=1.0 / qcomp=0.80 / qpmin=0 / qpmax=69 / qpstep=4 / cplxblur=20.0 / qblur=0.5 / vbv_maxrate=17500 / vbv_bufsize=17500 / nal_hrd=none / filler=0 / ip_ratio=1.10 / aq=1:0.50\nDefault: Yes\nForced: No\n\n_________________________________________________________________________________ \nAudio\nID: 2\nFormat: AC-3\nFormat/Info: Audio Coding 3\nMode extension: CM (complete main)\nFormat settings, Endianness: Big\nCodec ID: A_AC3\nDuration: 1h 44mn\nBit rate mode: Constant\nBit rate: 384 Kbps\nChannel(s): 6 channels\nChannel positions: Front: L C R, Side: L R, LFE\nSampling rate: 48.0 KHz\nBit depth: 16 bits\nCompression mode: Lossy\nStream size: 287 MiB (20%)\nLanguage: English\nDefault: Yes\nForced: No\n_________________________________________________________________________________ SOURCES:Vampire.Academy.2014.720p.BluRay.x264-SPARKSThanks\n\n_________________________________________________________________________________ Plot:Rose Hathaway is a Dhampir, half human/vampire, guardians of the Moroi, peaceful, mortal vampires living discretely within our world. Her legacy is to protect the Moroi from bloodthirsty, immortal Vampires, the Strigoi. This is her story.\n_________________________________________________________________________________ Screens:\n &lt;a href=&quot;\nhttp://i1179.photobucket.com/albums/x394/crewsade/Knife3/vlcsnap-2014-04-26-01h24m31s220.png&quot; rel=&quot;nofollow&quot; target=&quot;_NEW&quot;&gt;\nhttp://i1179.photobucket.com/albums/x394/crewsade/Knife3/vlcsnap-2014-04-26-01h24m31s220.png&lt;/a&gt; &lt;a href=&quot;\nhttp://i1179.photobucket.com/albums/x394/crewsade/Knife3/vlcsnap-2014-04-26-01h23m56s125.png&quot; rel=&quot;nofollow&quot; target=&quot;_NEW&quot;&gt;\nhttp://i1179.photobucket.com/albums/x394/crewsade/Knife3/vlcsnap-2014-04-26-01h23m56s125.png&lt;/a&gt; &lt;a href=&quot;\nhttp://i1179.photobucket.com/albums/x394/crewsade/Knife3/vlcsnap-2014-04-26-01h23m57s137.png&quot; rel=&quot;nofollow&quot; target=&quot;_NEW&quot;&gt;\nhttp://i1179.photobucket.com/albums/x394/crewsade/Knife3/vlcsnap-2014-04-26-01h23m57s137.png&lt;/a&gt; &lt;a href=&quot;\nhttp://i1179.photobucket.com/albums/x394/crewsade/Knife3/vlcsnap-2014-04-26-01h21m48s129.png&quot; rel=&quot;nofollow&quot; target=&quot;_NEW&quot;&gt;\nhttp://i1179.photobucket.com/albums/x394/crewsade/Knife3/vlcsnap-2014-04-26-01h21m48s129.png&lt;/a&gt; &lt;a href=&quot;\nhttp://i1179.photobucket.com/albums/x394/crewsade/Knife3/vlcsnap-2014-04-26-01h26m03s117.png&quot; rel=&quot;nofollow&quot; target=&quot;_NEW&quot;&gt;\nhttp://i1179.photobucket.com/albums/x394/crewsade/Knife3/vlcsnap-2014-04-26-01h26m03s117.png&lt;/a&gt;\n","torrent":{"xt":"urn:btih:8c9ab98d815a4431d714fbbe801e9a0f02e5f4b1","amp;dn":"Vampire.Academy.2014.BRRIP.x264.AC3.CrEwSaDe","amp;tr":["udp%3A%2F%2Ftracker.openbittorrent.com%3A80","udp%3A%2F%2Fopen.demonii.com%3A1337","udp%3A%2F%2Ftracker.coppersurfer.tk%3A6969","udp%3A%2F%2Fexodus.desync.com%3A6969"],"infoHash":"8c9ab98d815a4431d714fbbe801e9a0f02e5f4b1","infoHashBuffer":{"type":"Buffer","data":[140,154,185,141,129,90,68,49,215,20,251,190,128,30,154,15,2,229,244,177]},"announce":[],"urlList":[]}}